<?xml version="1.0" encoding="utf-8"?>
<!-- Generator: Adobe Illustrator 13.0.0, SVG Export Plug-In . SVG Version: 6.00 Build 14948)  -->
<!DOCTYPE svg PUBLIC "-//W3C//DTD SVG 1.1//EN" "http://www.w3.org/Graphics/SVG/1.1/DTD/svg11.dtd">
<svg version="1.1" id="Layer_1" xmlns="http://www.w3.org/2000/svg" xmlns:xlink="http://www.w3.org/1999/xlink" x="0px" y="0px"
	 width="1920px" height="1010px" viewBox="0 0 1920 1010" enable-background="new 0 0 1920 1010" xml:space="preserve">
<rect x="-95.5" y="-46.5" fill="#AEE4FF" width="2250" height="354"/>
<path fill="#95C3D1" d="M574.5,259.5c26,6,258-12,414-22s298-4,360,4s288-10,310-10s198,12,198,12l168,10l-916,234L574.5,259.5z"/>
<path fill="#93B3E2" d="M2046.5,267.5c-10,0-450-24-570-22s-806,28-874,12s-184-28-308-2s-312,16-356,12s-182,748-182,748l488,378
	l2122-114L2046.5,267.5z"/>
<path fill="#63A5B7" d="M-57.5,285.5c0,0,598,30,658,10c0,0,60-28,74-16c0,0-40,8,56,8s370-36,380-22c0,0,40,16,82,8s202-12,210-12
	s180,32,318-10c0,0,44,16,92,10s160-32,170-22s66,890,66,890l-1784,114l-534-284L-57.5,285.5z"/>
<polygon opacity="0.22" fill="#486E87" points="-21.5,297.5 28.5,299.5 54.5,303.5 84.5,299.5 112.5,299.5 118.5,309.5 134.5,301.5 
	146.5,305.5 158.5,301.5 170.5,319.5 170.5,299.5 182.5,305.5 198.5,299.5 200.5,309.5 220.5,307.5 252.5,303.5 264.5,305.5 
	284.5,303.5 300.5,303.5 594.5,307.5 630.5,289.5 648.5,283.5 658.5,299.5 688.5,293.5 706.5,299.5 718.5,297.5 734.5,305.5 
	730.5,287.5 760.5,301.5 766.5,291.5 784.5,297.5 806.5,293.5 834.5,287.5 848.5,291.5 860.5,283.5 882.5,303.5 884.5,281.5 
	908.5,281.5 950.5,279.5 1000.5,269.5 1012.5,277.5 1034.5,269.5 1062.5,265.5 1082.5,275.5 1116.5,277.5 1142.5,281.5 
	1168.5,289.5 1202.5,279.5 1220.5,281.5 1242.5,275.5 1258.5,285.5 1270.5,273.5 1288.5,271.5 1318.5,275.5 1340.5,269.5 
	1360.5,269.5 1388.5,269.5 1416.5,277.5 1438.5,273.5 1438.5,289.5 1450.5,275.5 1464.5,283.5 1480.5,279.5 1482.5,295.5 
	1488.5,279.5 1504.5,283.5 1524.5,279.5 1532.5,287.5 1550.5,279.5 1576.5,279.5 1628.5,279.5 1656.5,277.5 1678.5,269.5 
	1686.5,275.5 1706.5,261.5 1716.5,267.5 1722.5,259.5 1736.5,277.5 1734.5,263.5 1774.5,269.5 1812.5,261.5 1852.5,271.5 
	1874.5,253.5 1908.5,249.5 1938.5,255.5 1968.5,305.5 2002.5,423.5 1386.5,567.5 58.5,369.5 "/>
<path fill="#B2C3ED" d="M-731.5,63.5c0,0,572,34,618,24l-724,280L-731.5,63.5z"/>
<path fill="#486E87" d="M-18.651,345.315c0,0,428.115,11.131,751.579-11.132c323.464-22.263-320.293,86.27-320.293,86.27
	L-145.5,445.5L-18.651,345.315z"/>
<ellipse fill="#E6E6E6" cx="62.5" cy="81.5" rx="22" ry="20"/>
<ellipse fill="#E6E6E6" cx="104.5" cy="83.5" rx="30" ry="34"/>
<ellipse fill="#E6E6E6" cx="66.5" cy="122.5" rx="32" ry="29"/>
<ellipse fill="#E6E6E6" cx="132.5" cy="122.5" rx="34" ry="41"/>
<ellipse fill="#E6E6E6" cx="156.5" cy="86.5" rx="22" ry="23"/>
<ellipse fill="#E6E6E6" cx="176.5" cy="101" rx="20" ry="14.5"/>
<ellipse fill="#E6E6E6" cx="205.5" cy="89.5" rx="21" ry="20"/>
<ellipse fill="#E6E6E6" cx="229.5" cy="115.5" rx="19" ry="16"/>
<ellipse fill="#E6E6E6" cx="177.5" cy="123.5" rx="41" ry="24"/>
<ellipse fill="#E6E6E6" cx="135.5" cy="80.5" rx="27" ry="21"/>
<ellipse fill="#E6E6E6" cx="173.5" cy="81.5" rx="15" ry="24"/>
<ellipse fill="#E6E6E6" cx="244.5" cy="98.5" rx="24" ry="17"/>
<ellipse fill="#E6E6E6" cx="281.5" cy="101.5" rx="23" ry="16"/>
<ellipse fill="#E6E6E6" cx="254.5" cy="116.5" rx="16" ry="13"/>
<ellipse fill="#E6E6E6" cx="229.5" cy="136.5" rx="21" ry="15"/>
<ellipse fill="#E6E6E6" cx="286.5" cy="128.5" rx="24" ry="19"/>
<ellipse fill="#E6E6E6" cx="304.5" cy="94.5" rx="18" ry="15"/>
<ellipse fill="#E6E6E6" cx="327.5" cy="126.5" rx="27" ry="11"/>
<ellipse fill="#E6E6E6" cx="322.5" cy="104.5" rx="24" ry="15"/>
<ellipse fill="#E6E6E6" cx="365.5" cy="105.5" rx="23" ry="20"/>
<ellipse fill="#E6E6E6" cx="389" cy="121.5" rx="23.5" ry="16"/>
<ellipse fill="#E6E6E6" cx="420.5" cy="109.5" rx="26" ry="18"/>
<ellipse fill="#E6E6E6" cx="455.5" cy="103.5" rx="19" ry="16"/>
<ellipse fill="#E6E6E6" cx="105.5" cy="92.5" rx="59" ry="53"/>
<ellipse fill="#E6E6E6" cx="46.5" cy="97.5" rx="26" ry="20"/>
<ellipse fill="#E6E6E6" cx="31.5" cy="80.5" rx="15" ry="17"/>
<ellipse fill="#E6E6E6" cx="8.5" cy="102.5" rx="32" ry="25"/>
<ellipse fill="#E6E6E6" cx="22.5" cy="127.5" rx="24" ry="26"/>
<ellipse fill="#E6E6E6" cx="-13.5" cy="131.5" rx="24" ry="18"/>
<ellipse fill="#E6E6E6" cx="480.5" cy="114.5" rx="14" ry="11"/>
<ellipse fill="#E6E6E6" cx="512.5" cy="117.5" rx="12" ry="8"/>
<ellipse fill="#E6E6E6" cx="570.5" cy="127.5" rx="6" ry="8"/>
<g opacity="0.27">
	<ellipse fill="#B9B9B9" cx="45.5" cy="92.5" rx="22" ry="20"/>
	<ellipse fill="#B9B9B9" cx="87.5" cy="94.5" rx="30" ry="34"/>
	<ellipse fill="#B9B9B9" cx="49.5" cy="133.5" rx="32" ry="29"/>
	<ellipse fill="#B9B9B9" cx="115.5" cy="133.5" rx="34" ry="41"/>
	<ellipse fill="#B9B9B9" cx="139.5" cy="97.5" rx="22" ry="23"/>
	<ellipse fill="#B9B9B9" cx="159.5" cy="112" rx="20" ry="14.5"/>
	<ellipse fill="#B9B9B9" cx="188.5" cy="100.5" rx="21" ry="20"/>
	<ellipse fill="#B9B9B9" cx="212.5" cy="126.5" rx="19" ry="16"/>
	<ellipse fill="#B9B9B9" cx="160.5" cy="134.5" rx="41" ry="24"/>
	<ellipse fill="#B9B9B9" cx="118.5" cy="91.5" rx="27" ry="21"/>
	<ellipse fill="#B9B9B9" cx="156.5" cy="92.5" rx="15" ry="24"/>
	<ellipse fill="#B9B9B9" cx="227.5" cy="109.5" rx="24" ry="17"/>
	<ellipse fill="#B9B9B9" cx="264.5" cy="112.5" rx="23" ry="16"/>
	<ellipse fill="#B9B9B9" cx="237.5" cy="127.5" rx="16" ry="13"/>
	<ellipse fill="#B9B9B9" cx="212.5" cy="147.5" rx="21" ry="15"/>
	<ellipse fill="#B9B9B9" cx="269.5" cy="139.5" rx="24" ry="19"/>
	<ellipse fill="#B9B9B9" cx="287.5" cy="105.5" rx="18" ry="15"/>
	<ellipse fill="#B9B9B9" cx="310.5" cy="137.5" rx="27" ry="11"/>
	<ellipse fill="#B9B9B9" cx="305.5" cy="115.5" rx="24" ry="15"/>
	<ellipse fill="#B9B9B9" cx="348.5" cy="116.5" rx="23" ry="20"/>
	<ellipse fill="#B9B9B9" cx="372" cy="132.5" rx="23.5" ry="16"/>
	<ellipse fill="#B9B9B9" cx="403.5" cy="120.5" rx="26" ry="18"/>
	<ellipse fill="#B9B9B9" cx="438.5" cy="114.5" rx="19" ry="16"/>
	<ellipse fill="#B9B9B9" cx="88.5" cy="103.5" rx="59" ry="53"/>
	<ellipse fill="#B9B9B9" cx="29.5" cy="108.5" rx="26" ry="20"/>
	<ellipse fill="#B9B9B9" cx="14.5" cy="91.5" rx="15" ry="17"/>
	<ellipse fill="#B9B9B9" cx="-8.5" cy="113.5" rx="32" ry="25"/>
	<ellipse fill="#B9B9B9" cx="5.5" cy="138.5" rx="24" ry="26"/>
	<ellipse fill="#B9B9B9" cx="-30.5" cy="142.5" rx="24" ry="18"/>
	<ellipse fill="#B9B9B9" cx="463.5" cy="125.5" rx="14" ry="11"/>
	<ellipse fill="#B9B9B9" cx="495.5" cy="128.5" rx="12" ry="8"/>
	<ellipse fill="#B9B9B9" cx="553.5" cy="138.5" rx="6" ry="8"/>
</g>
<ellipse fill="#E6E6E6" cx="1900.5" cy="59.432" rx="40" ry="35.932"/>
<ellipse fill="#E6E6E6" cx="1843.5" cy="95.5" rx="41" ry="30"/>
<ellipse fill="#E6E6E6" cx="1842.5" cy="62.5" rx="26" ry="19"/>
<ellipse fill="#E6E6E6" cx="1780.5" cy="92.5" rx="42" ry="33"/>
<ellipse fill="#E6E6E6" cx="1761.5" cy="65.5" rx="25" ry="24"/>
<ellipse fill="#E6E6E6" cx="1736.5" cy="97.5" rx="52" ry="34"/>
<ellipse fill="#E6E6E6" cx="1812" cy="123.5" rx="50.5" ry="34"/>
<ellipse fill="#E6E6E6" cx="1890.5" cy="106.5" rx="32" ry="29"/>
<ellipse fill="#E6E6E6" cx="1664.5" cy="79.5" rx="42" ry="36"/>
<ellipse fill="#E6E6E6" cx="1722.5" cy="66.5" rx="30" ry="23"/>
<ellipse fill="#E6E6E6" cx="1627.5" cy="119.5" rx="31" ry="22"/>
<ellipse fill="#E6E6E6" cx="1603.5" cy="88.5" rx="25" ry="21"/>
<ellipse fill="#E6E6E6" cx="1580.5" cy="73.5" rx="34" ry="22"/>
<ellipse fill="#E6E6E6" cx="1534.5" cy="96.5" rx="28" ry="17"/>
<ellipse fill="#E6E6E6" cx="1484.5" cy="83.5" rx="32" ry="28"/>
<ellipse fill="#E6E6E6" cx="1415.5" cy="89.5" rx="43" ry="30"/>
<ellipse fill="#E6E6E6" cx="1353.5" cy="73.5" rx="21" ry="22"/>
<ellipse fill="#E6E6E6" cx="1343.5" cy="165.5" rx="57" ry="40"/>
<ellipse fill="#E6E6E6" cx="1370.5" cy="123.5" rx="34" ry="24"/>
<ellipse fill="#E6E6E6" cx="1318.5" cy="103.5" rx="52" ry="36"/>
<ellipse fill="#E6E6E6" cx="1240.5" cy="94.5" rx="62" ry="25"/>
<ellipse fill="#E6E6E6" cx="1428.5" cy="134.5" rx="26" ry="27"/>
<ellipse fill="#E6E6E6" cx="1485.5" cy="115.5" rx="41" ry="22"/>
<ellipse fill="#E6E6E6" cx="1576.5" cy="117.5" rx="30" ry="26"/>
<ellipse fill="#E6E6E6" cx="1709.5" cy="138.5" rx="35" ry="37"/>
<ellipse fill="#E6E6E6" cx="1661" cy="129.5" rx="33.5" ry="32"/>
<ellipse fill="#E6E6E6" cx="1558.5" cy="138.5" rx="46" ry="29"/>
<ellipse fill="#E6E6E6" cx="1613.5" cy="133.5" rx="27" ry="36"/>
<ellipse fill="#E6E6E6" cx="1491.5" cy="143.5" rx="31" ry="24"/>
<ellipse fill="#E6E6E6" cx="1530.5" cy="82.5" rx="28" ry="27"/>
<ellipse fill="#E6E6E6" cx="1161.5" cy="104.5" rx="15" ry="17"/>
<circle fill="#E6E6E6" cx="1114.5" cy="113.5" r="6"/>
<ellipse fill="#E6E6E6" cx="1061.5" cy="113.5" rx="3" ry="2"/>
<ellipse fill="#E6E6E6" cx="1082.5" cy="78.5" rx="4" ry="5"/>
<circle fill="#E6E6E6" cx="1146.5" cy="79.5" r="2"/>
<ellipse fill="#E6E6E6" cx="1180.5" cy="74.5" rx="8" ry="9"/>
<ellipse fill="#E6E6E6" cx="1238.5" cy="75.5" rx="10" ry="16"/>
<ellipse fill="#E6E6E6" cx="1291.5" cy="78" rx="11" ry="16.5"/>
<circle fill="#E6E6E6" cx="1328.5" cy="61.5" r="12"/>
<ellipse fill="#E6E6E6" cx="1258.5" cy="121.5" rx="14" ry="12"/>
<ellipse fill="#E6E6E6" cx="1208.5" cy="118.5" rx="14" ry="9"/>
<ellipse fill="#E6E6E6" cx="1281.5" cy="136.5" rx="23" ry="15"/>
<ellipse fill="#E6E6E6" cx="1401.5" cy="136.5" rx="11" ry="17"/>
<ellipse fill="#E6E6E6" cx="1475.5" cy="137.5" rx="19" ry="12"/>
<ellipse fill="#E6E6E6" cx="1544.5" cy="52.5" rx="10" ry="13"/>
<ellipse fill="#E6E6E6" cx="1586" cy="50.5" rx="17.5" ry="17"/>
<ellipse fill="#E6E6E6" cx="1688.5" cy="46.5" rx="12" ry="11"/>
<ellipse fill="#E6E6E6" cx="1731.5" cy="39.5" rx="17" ry="14"/>
<ellipse fill="#E6E6E6" cx="1156.5" cy="92.5" rx="12" ry="13"/>
<circle fill="#E6E6E6" cx="1116.5" cy="93.5" r="10"/>
<ellipse fill="#E6E6E6" cx="1139.5" cy="87.5" rx="17" ry="12"/>
<ellipse fill="#E6E6E6" cx="1104.5" cy="101.5" rx="16" ry="12"/>
<ellipse fill="#E6E6E6" cx="1101.5" cy="86" rx="15" ry="7.5"/>
<ellipse fill="#E6E6E6" cx="1140.5" cy="108.5" rx="8" ry="7"/>
<ellipse fill="#E6E6E6" cx="1178.5" cy="109" rx="16" ry="9.5"/>
<ellipse fill="#E6E6E6" cx="1175" cy="98.5" rx="13.5" ry="11"/>
<ellipse fill="#E6E6E6" cx="1924.5" cy="145.5" rx="46" ry="42"/>
<g opacity="0.15">
	<ellipse fill="#A6A6A6" cx="1899.5" cy="69.432" rx="40" ry="35.933"/>
	<ellipse fill="#A6A6A6" cx="1842.5" cy="105.5" rx="41" ry="30"/>
	<ellipse fill="#A6A6A6" cx="1841.5" cy="72.5" rx="26" ry="19"/>
	<ellipse fill="#A6A6A6" cx="1779.5" cy="102.5" rx="42" ry="33"/>
	<ellipse fill="#A6A6A6" cx="1760.5" cy="75.5" rx="25" ry="24"/>
	<ellipse fill="#A6A6A6" cx="1735.5" cy="107.5" rx="52" ry="34"/>
	<ellipse fill="#A6A6A6" cx="1811" cy="133.5" rx="50.5" ry="34"/>
	<ellipse fill="#A6A6A6" cx="1889.5" cy="116.5" rx="32" ry="29"/>
	<ellipse fill="#A6A6A6" cx="1663.5" cy="89.5" rx="42" ry="36"/>
	<ellipse fill="#A6A6A6" cx="1721.5" cy="76.5" rx="30" ry="23"/>
	<ellipse fill="#A6A6A6" cx="1626.5" cy="129.5" rx="31" ry="22"/>
	<ellipse fill="#A6A6A6" cx="1602.5" cy="98.5" rx="25" ry="21"/>
	<ellipse fill="#A6A6A6" cx="1579.5" cy="83.5" rx="34" ry="22"/>
	<ellipse fill="#A6A6A6" cx="1533.5" cy="106.5" rx="28" ry="17"/>
	<ellipse fill="#A6A6A6" cx="1483.5" cy="93.5" rx="32" ry="28"/>
	<ellipse fill="#A6A6A6" cx="1414.5" cy="99.5" rx="43" ry="30"/>
	<ellipse fill="#A6A6A6" cx="1352.5" cy="83.5" rx="21" ry="22"/>
	<ellipse fill="#A6A6A6" cx="1342.5" cy="175.5" rx="57" ry="40"/>
	<ellipse fill="#A6A6A6" cx="1369.5" cy="133.5" rx="34" ry="24"/>
	<ellipse fill="#A6A6A6" cx="1317.5" cy="113.5" rx="52" ry="36"/>
	<ellipse fill="#A6A6A6" cx="1239.5" cy="104.5" rx="62" ry="25"/>
	<ellipse fill="#A6A6A6" cx="1427.5" cy="144.5" rx="26" ry="27"/>
	<ellipse fill="#A6A6A6" cx="1484.5" cy="125.5" rx="41" ry="22"/>
	<ellipse fill="#A6A6A6" cx="1575.5" cy="127.5" rx="30" ry="26"/>
	<ellipse fill="#A6A6A6" cx="1708.5" cy="148.5" rx="35" ry="37"/>
	<ellipse fill="#A6A6A6" cx="1660" cy="139.5" rx="33.5" ry="32"/>
	<ellipse fill="#A6A6A6" cx="1557.5" cy="148.5" rx="46" ry="29"/>
	<ellipse fill="#A6A6A6" cx="1612.5" cy="143.5" rx="27" ry="36"/>
	<ellipse fill="#A6A6A6" cx="1490.5" cy="153.5" rx="31" ry="24"/>
	<ellipse fill="#A6A6A6" cx="1529.5" cy="92.5" rx="28" ry="27"/>
	<ellipse fill="#A6A6A6" cx="1160.5" cy="114.5" rx="15" ry="17"/>
	<circle fill="#A6A6A6" cx="1113.5" cy="123.5" r="6"/>
	<ellipse fill="#A6A6A6" cx="1060.5" cy="123.5" rx="3" ry="2"/>
	<ellipse fill="#A6A6A6" cx="1081.5" cy="88.5" rx="4" ry="5"/>
	<circle fill="#A6A6A6" cx="1145.5" cy="89.5" r="2"/>
	<ellipse fill="#A6A6A6" cx="1179.5" cy="84.5" rx="8" ry="9"/>
	<ellipse fill="#A6A6A6" cx="1237.5" cy="85.5" rx="10" ry="16"/>
	<ellipse fill="#A6A6A6" cx="1290.5" cy="88" rx="11" ry="16.5"/>
	<circle fill="#A6A6A6" cx="1327.5" cy="71.5" r="12"/>
	<ellipse fill="#A6A6A6" cx="1257.5" cy="131.5" rx="14" ry="12"/>
	<ellipse fill="#A6A6A6" cx="1207.5" cy="128.5" rx="14" ry="9"/>
	<ellipse fill="#A6A6A6" cx="1280.5" cy="146.5" rx="23" ry="15"/>
	<ellipse fill="#A6A6A6" cx="1400.5" cy="146.5" rx="11" ry="17"/>
	<ellipse fill="#A6A6A6" cx="1474.5" cy="147.5" rx="19" ry="12"/>
	<ellipse fill="#A6A6A6" cx="1543.5" cy="62.5" rx="10" ry="13"/>
	<ellipse fill="#A6A6A6" cx="1585" cy="60.5" rx="17.5" ry="17"/>
	<ellipse fill="#A6A6A6" cx="1687.5" cy="56.5" rx="12" ry="11"/>
	<ellipse fill="#A6A6A6" cx="1730.5" cy="49.5" rx="17" ry="14"/>
	<ellipse fill="#A6A6A6" cx="1155.5" cy="102.5" rx="12" ry="13"/>
	<circle fill="#A6A6A6" cx="1115.5" cy="103.5" r="10"/>
	<ellipse fill="#A6A6A6" cx="1138.5" cy="97.5" rx="17" ry="12"/>
	<ellipse fill="#A6A6A6" cx="1103.5" cy="111.5" rx="16" ry="12"/>
	<ellipse fill="#A6A6A6" cx="1100.5" cy="96" rx="15" ry="7.5"/>
	<ellipse fill="#A6A6A6" cx="1139.5" cy="118.5" rx="8" ry="7"/>
	<ellipse fill="#A6A6A6" cx="1177.5" cy="119" rx="16" ry="9.5"/>
	<ellipse fill="#A6A6A6" cx="1174" cy="108.5" rx="13.5" ry="11"/>
	<ellipse fill="#A6A6A6" cx="1923.5" cy="155.5" rx="46" ry="42"/>
</g>
<path fill="#0C512F" d="M392.5,907.5c0,0-180-78-204-52s-52,82-52,82s86,52,102,50s124-26,124-26L392.5,907.5z"/>
<path fill="#0C512F" d="M224.5,939.5c0,0-70,36-62,46s56,74,82,72s40-24,40-24v-46l-20-46L224.5,939.5z"/>
<path fill="#0C512F" d="M52.5,941.5l2,82l104,38l70-60c0,0-68-92-132-78S52.5,941.5,52.5,941.5z"/>
<path fill="#0C512F" d="M120.5,887.5c0,0-18,52,24,66s98-2,102-10S176.5,863.5,120.5,887.5z"/>
<path fill="#0C512F" d="M82.5,833.5l12,44l92,18l36-52C222.5,843.5,174.5,787.5,82.5,833.5z"/>
<path fill="#0C512F" d="M58.5,889.5l20,28l44,2c0,0,58-14,44-32S86.5,845.5,58.5,889.5z"/>
<path fill="#0C512F" d="M-25.5,931.5l30,48l94,8l-28-100C70.5,887.5-39.5,879.5-25.5,931.5z"/>
<path fill="#0C512F" d="M-13.5,869.5l16,40l112-14c0,0,48-38-22-46S-13.5,869.5-13.5,869.5z"/>
<path fill="#0C512F" d="M-43.5,989.5c0,0,18,38,88,20s50-38,50-38l-84-18L-43.5,989.5z"/>
<path fill="#006837" d="M62.5,913.5c0,0-12,52,40,48s66-38,36-50S62.5,913.5,62.5,913.5z"/>
<path fill="#0C512F" d="M389.316,1005.376l-16.266-42.607l-93.323-8.872l-30.716,55.286
	C249.011,1009.183,302.282,1060.194,389.316,1005.376z"/>
<path fill="#0C512F" d="M347.5,946.5l2,82l104,38l70-60c0,0-68-92-132-78S347.5,946.5,347.5,946.5z"/>
<path fill="#83A59F" d="M534.5,361.5c0,0,232-28,270-42s78-16,78-16s42,20,174,40s402,146,564,104s772-166,832-54l-600,472
	l-1306-206L534.5,361.5z"/>
<path opacity="0.51" fill="#347382" d="M584.5,373.5c0,0,240-40,260-54s4,8,4,8l14-8l6,14l6-14l12,12l14-6c0,0,50,2,68,16
	s20,32,20,32l12-24l24,6l26,10l18-4l36,14h28l26,8l32,16l44,16l28-2l30,6l44,12l36,12l30,2l20,10l32,4l22,22l34,28l46,2l76,6l-26,14
	l-94-10l-44,4l-34,32l-48,10l-82,12l-42,36l20,12l2,30l-626-78l-168-170L584.5,373.5z"/>
<path fill="#5B7C5B" d="M-71.5,423.5c0,0,388-106,452-148s26-34,40-38s110-20,118-2s74,312,618,462l-1288,18L-71.5,423.5z"/>
<path fill="#5C5D66" d="M1010.5,653.5c0,0,560-68,622-104s150-186,192-246c0,0,18-26,94-22s70,260,70,260l44,292l-878-50
	L1010.5,653.5z"/>
<path fill="#638473" d="M0.5,539.5c0,0,426-118,576-96s654,248,992,192c0,0,172,2,396,12l28,422l-2064,64L0.5,539.5z"/>
<path opacity="0.73" fill="#477991" d="M1832.5,315.5c0,0-50,62-64,106s-26,56-26,56s34-32,70-90s18-8,20,20s22,100,22,100
	s-6-108-2-132s22,42,22,42s20-48,14-70s18-8,18-8l30,14l-2-50C1934.5,303.5,1884.5,275.5,1832.5,315.5z"/>
<path fill="#B9BFC1" d="M1818.5,735.5c0,0-74-44-180-44s-184,36-210,36s22,26,22,26s122,10,166-2s90-16,98-12
	S1818.5,735.5,1818.5,735.5z"/>
<polygon fill="#B9BFC1" points="1852.5,735.5 1846.5,743.5 1864.5,747.5 1872.5,733.5 "/>
<polygon fill="#B9BFC1" points="1820.5,753.5 1796.5,751.5 1802.5,759.5 "/>
<polygon fill="#B9BFC1" points="1694.5,749.5 1676.5,757.5 1700.5,759.5 "/>
<path opacity="0.54" fill="#1A1F2D" d="M-19.5,565.5c0,0,374-96,392-88s136-38,162-14s104,30,104,30l48,64l-162-20l-58,92l-176-16
	l186,130c0,0-348-42-354-42s-142,4-142,4V565.5z"/>
<path opacity="0.46" fill="#0C190E" d="M432.5,241.5c0,0-36,46-134,74c0,0,120-16,190-82L432.5,241.5z"/>
<path opacity="0.66" fill="#19261F" d="M2096.5,757.5c0,0-510,32-736,76s-628,36-664,34s-404-36-428-30s-314,34-314,34l50,310
	l1952,54L2096.5,757.5z"/>
<path fill="#19261F" d="M-11.5,887.5l186-16l108-30l172,26l-96,10l82,14l-66,6l28,18c0,0-80-8-94-2s-172,64-172,64l114-8l-116,42
	l-92,34l-72-14L-11.5,887.5z"/>
</svg>
